<?xml version="1.0" encoding="UTF-8"?>
<svg width="48" height="48" viewBox="0 0 48 48" fill="none" xmlns="http://www.w3.org/2000/svg">
  <rect width="48" height="48" rx="24" fill="#F0F0F0"/>
  <path d="M24 14C18.48 14 14 18.48 14 24C14 29.52 18.48 34 24 34C29.52 34 34 29.52 34 24C34 18.48 29.52 14 24 14ZM24 16C28.42 16 32 19.58 32 24C32 28.42 28.42 32 24 32C19.58 32 16 28.42 16 24C16 19.58 19.58 16 24 16Z" fill="#3498DB"/>
  <path d="M24 18.5C23.17 18.5 22.5 19.17 22.5 20C22.5 20.83 23.17 21.5 24 21.5C24.83 21.5 25.5 20.83 25.5 20C25.5 19.17 24.83 18.5 24 18.5ZM22 23C22 23.55 22.45 24 23 24H25C25.55 24 26 23.55 26 23C26 22.45 25.55 22 25 22H23C22.45 22 22 22.45 22 23ZM22 27H26V25H22V27Z" fill="#3498DB"/>
</svg> 