<svg width="48" height="48" viewBox="0 0 48 48" fill="none" xmlns="http://www.w3.org/2000/svg">
  <rect width="48" height="48" rx="24" fill="#F5F3FF"/>
  <path d="M30.0002 19C29.2044 19 28.4413 18.6839 27.8787 18.1213C27.3161 17.5587 27 16.7956 27 16C27 14.8954 26.1046 14 25 14H23C21.8954 14 21 14.8954 21 16C21 16.7956 20.6839 17.5587 20.1213 18.1213C19.5587 18.6839 18.7956 19 18 19H16C14.8954 19 14 19.8954 14 21V29C14 32.866 17.134 36 21 36H27C30.866 36 34 32.866 34 29V21C34 19.8954 33.1046 19 32 19H30.0002Z" fill="#C4B5FD"/>
  <path d="M20 26L23 29L28 24" stroke="#6D28D9" stroke-width="1.5" stroke-linecap="round" stroke-linejoin="round"/>
  <path d="M27 16C27 16.7956 27.3161 17.5587 27.8787 18.1213C28.4413 18.6839 29.2044 19 30 19" stroke="#6D28D9" stroke-width="1.5" stroke-linecap="round" stroke-linejoin="round"/>
  <path d="M18 19C18.7956 19 19.5587 18.6839 20.1213 18.1213C20.6839 17.5587 21 16.7956 21 16" stroke="#6D28D9" stroke-width="1.5" stroke-linecap="round" stroke-linejoin="round"/>
</svg> 