<?xml version="1.0" encoding="UTF-8"?>
<svg xmlns="http://www.w3.org/2000/svg" width="48" height="48" viewBox="0 0 24 24" fill="none" stroke="#6366f1" stroke-width="1.5" stroke-linecap="round" stroke-linejoin="round">
  <circle cx="12" cy="12" r="9"></circle>
  <path d="M12,3C7.032,3,3,7.032,3,12s4.032,9,9,9s9-4.032,9-9S16.968,3,12,3z M14,16c0,0.55-0.45,1-1,1h-2c-0.55,0-1-0.45-1-1v-2c0-0.55,0.45-1,1-1h2c0.55,0,1,0.45,1,1V16z M14,10c0,0.55-0.45,1-1,1h-2c-0.55,0-1-0.45-1-1V8c0-0.55,0.45-1,1-1h2c0.55,0,1,0.45,1,1V10z M14,10"></path>
</svg> 