<svg width="48" height="48" viewBox="0 0 48 48" fill="none" xmlns="http://www.w3.org/2000/svg">
  <rect width="48" height="48" rx="24" fill="#ECFDF5"/>
  <path d="M37 28.5V32C37 33.1046 36.1046 34 35 34H33.5C33.5 31.5147 31.4853 29.5 29 29.5C26.5147 29.5 24.5 31.5147 24.5 34H23.5C23.5 31.5147 21.4853 29.5 19 29.5C16.5147 29.5 14.5 31.5147 14.5 34H13C11.8954 34 11 33.1046 11 32V25.0572L15.2071 18.3214C15.7176 17.5033 16.6041 17 17.5642 17H24.2857C25.2458 17 26.1324 17.5033 26.6428 18.3214L30.5 24.5V28.5H37Z" fill="#6EE7B7"/>
  <path d="M29 34C29 32.3431 27.6569 31 26 31C24.3431 31 23 32.3431 23 34C23 35.6569 24.3431 37 26 37C27.6569 37 29 35.6569 29 34Z" fill="#064E3B"/>
  <path d="M19 34C19 32.3431 17.6569 31 16 31C14.3431 31 13 32.3431 13 34C13 35.6569 14.3431 37 16 37C17.6569 37 19 35.6569 19 34Z" fill="#064E3B"/>
  <path d="M13 23.5H23M31 28.5H37V25.5H33" stroke="#059669" stroke-width="1.5" stroke-linecap="round" stroke-linejoin="round"/>
</svg> 