<?xml version="1.0" encoding="UTF-8"?>
<svg xmlns="http://www.w3.org/2000/svg" width="48" height="48" viewBox="0 0 24 24" fill="none" stroke="#6366f1" stroke-width="1.5" stroke-linecap="round" stroke-linejoin="round">
  <path d="M17.5,4.5c-1.95,0-4.05,0.4-5.5,1.5c-1.45-1.1-3.55-1.5-5.5-1.5c-1.45,0-2.99,0.22-4.28,0.79C1.49,5.62,1,6.33,1,7.14v11.28c0,0.81,0.49,1.52,1.22,1.85c1.29,0.57,2.83,0.79,4.28,0.79c1.82,0,3.66-0.33,5-1.03v-1.61c-1.35,0.65-3.18,1.14-5,1.14c-1.3,0-2.68-0.22-3.77-0.64v-9.32c1.09-0.41,2.47-0.64,3.77-0.64c2.5,0,5,1.5,5,1.5s2.5-1.5,5-1.5c1.3,0,2.68,0.23,3.77,0.64v4.61c0.71,0.1,1.38,0.32,2,0.64V7.14c0-0.81-0.49-1.52-1.22-1.85C20.49,4.72,18.95,4.5,17.5,4.5z"></path>
  <path d="M21,18h-2v2h-2v-2h-2v-2h2v-2h2v2h2V18z"></path>
</svg> 