<svg width="48" height="48" viewBox="0 0 48 48" fill="none" xmlns="http://www.w3.org/2000/svg">
  <rect width="48" height="48" rx="24" fill="#F0F9FF"/>
  <path d="M36 18H33V16C33 14.8954 32.1046 14 31 14H17C15.8954 14 15 14.8954 15 16V18H12C10.8954 18 10 18.8954 10 20V32C10 33.1046 10.8954 34 12 34H36C37.1046 34 38 33.1046 38 32V20C38 18.8954 37.1046 18 36 18Z" fill="#7DD3FC"/>
  <path d="M15 18V16C15 14.8954 15.8954 14 17 14H31C32.1046 14 33 14.8954 33 16V18H15Z" fill="#0EA5E9"/>
  <path d="M22 26H26" stroke="#0369A1" stroke-width="1.5" stroke-linecap="round"/>
  <path d="M22 29H26" stroke="#0369A1" stroke-width="1.5" stroke-linecap="round"/>
  <path d="M24 18V34" stroke="#0369A1" stroke-width="1.5" stroke-linecap="round" stroke-dasharray="3 3"/>
</svg> 