<?xml version="1.0" encoding="UTF-8"?>
<svg width="48" height="48" viewBox="0 0 48 48" fill="none" xmlns="http://www.w3.org/2000/svg">
  <rect width="48" height="48" rx="24" fill="#E8F5E9"/>
  <path d="M36 20.5H35L32.83 14.17C32.37 13.19 31.35 12.5 30.24 12.5H17.76C16.65 12.5 15.63 13.19 15.17 14.17L13 20.5H12C11.45 20.5 11 20.95 11 21.5V22.5C11 23.05 11.45 23.5 12 23.5H13V32.5C13 33.05 13.45 33.5 14 33.5H16C16.55 33.5 17 33.05 17 32.5V30.5H31V32.5C31 33.05 31.45 33.5 32 33.5H34C34.55 33.5 35 33.05 35 32.5V23.5H36C36.55 23.5 37 23.05 37 22.5V21.5C37 20.95 36.55 20.5 36 20.5ZM17.24 15.5H30.76L32.35 20.5H15.65L17.24 15.5ZM17.5 26.5C16.12 26.5 15 25.38 15 24C15 22.62 16.12 21.5 17.5 21.5C18.88 21.5 20 22.62 20 24C20 25.38 18.88 26.5 17.5 26.5ZM30.5 26.5C29.12 26.5 28 25.38 28 24C28 22.62 29.12 21.5 30.5 21.5C31.88 21.5 33 22.62 33 24C33 25.38 31.88 26.5 30.5 26.5Z" fill="#3498DB"/>
</svg> 