<svg width="180" height="60" viewBox="0 0 180 60" fill="none" xmlns="http://www.w3.org/2000/svg">
  <!-- Main logo shape -->
  <path d="M32 12H28C19.1634 12 12 19.1634 12 28V32C12 40.8366 19.1634 48 28 48H32C40.8366 48 48 40.8366 48 32V28C48 19.1634 40.8366 12 32 12Z" fill="#4A6CF7"/>
  
  <!-- Highlight effect -->
  <path d="M40 20H36C27.1634 20 20 27.1634 20 36V40C20 40.5523 20.4477 41 21 41H25C33.8366 41 41 33.8366 41 25V21C41 20.4477 40.5523 20 40 20Z" fill="#7790F9"/>
  
  <!-- Shopping bag icon -->
  <path d="M30 24V26H34V24C34 21.7909 32.2091 20 30 20C27.7909 20 26 21.7909 26 24V26H30ZM24 26V24C24 20.6863 26.6863 18 30 18C33.3137 18 36 20.6863 36 24V26H37C38.1046 26 39 26.8954 39 28V38C39 39.1046 38.1046 40 37 40H23C21.8954 40 21 39.1046 21 38V28C21 26.8954 21.8954 26 23 26H24Z" fill="white"/>
  
  <!-- Text "mart.az" -->
  <path d="M63.2422 37H58.8125L66.2578 21.2188H71.0938L78.5391 37H74.1094L68.7188 25.3906H68.6328L63.2422 37ZM63.6328 31.2109H73.6758V34.0625H63.6328V31.2109Z" fill="#1E1F2D"/>
  <path d="M88.8906 37.2891C87.4688 37.2891 86.1992 37.0026 85.082 36.4297C83.9753 35.8464 83.1042 35.0339 82.4688 33.9922C81.8438 32.9401 81.5312 31.7292 81.5312 30.3594C81.5312 29.0104 81.8464 27.8099 82.4766 26.7578C83.1068 25.7057 83.9844 24.8854 85.1094 24.2969C86.2344 23.7083 87.5104 23.4141 88.9375 23.4141C90.0208 23.4141 90.9922 23.5911 91.8516 23.9453C92.7109 24.2995 93.4427 24.7891 94.0469 25.4141C94.651 26.0391 95.1094 26.7734 95.4219 27.6172C95.7344 28.4609 95.8906 29.3828 95.8906 30.3828V31.4531H83.2656V29.2344H92.2031C92.2031 28.6823 92.0833 28.1953 91.8438 27.7734C91.6042 27.3516 91.2708 27.0208 90.8438 26.7812C90.4167 26.5417 89.9167 26.4219 89.3438 26.4219C88.75 26.4219 88.224 26.5521 87.7656 26.8125C87.3073 27.0729 86.9505 27.4219 86.6953 27.8594C86.4401 28.2969 86.3125 28.7917 86.3125 29.3438V31.0156C86.3125 31.6875 86.4453 32.2656 86.7109 32.75C86.9766 33.2344 87.3568 33.6094 87.8516 33.875C88.3464 34.1406 88.9323 34.2734 89.6094 34.2734C90.0573 34.2734 90.4635 34.2109 90.8281 34.0859C91.1927 33.9609 91.5052 33.7734 91.7656 33.5234C92.026 33.2734 92.224 32.9688 92.3594 32.6094L95.7344 32.8516C95.5469 33.7161 95.1719 34.4661 94.6094 35.1016C94.0469 35.737 93.3177 36.2266 92.4219 36.5703C91.5365 37.0495 90.3802 37.2891 88.8906 37.2891Z" fill="#1E1F2D"/>
  <path d="M98.4688 37V23.7031H103.086V26.1094H103.227C103.529 25.276 103.997 24.6328 104.633 24.1797C105.268 23.7266 106.023 23.5 106.898 23.5C107.117 23.5 107.344 23.513 107.578 23.5391C107.812 23.5651 108.023 23.6016 108.211 23.6484V27.8516C108.002 27.7891 107.711 27.737 107.336 27.6953C106.961 27.6536 106.617 27.6328 106.305 27.6328C105.695 27.6328 105.151 27.7578 104.672 28.0078C104.193 28.2578 103.815 28.6094 103.539 29.0625C103.263 29.5156 103.125 30.0417 103.125 30.6406V37H98.4688Z" fill="#1E1F2D"/>
  <path d="M112.805 42.5V23.7031H117.43V26.0078H117.602C117.862 25.4557 118.219 24.9688 118.672 24.5469C119.125 24.125 119.656 23.7943 120.266 23.5547C120.875 23.3151 121.542 23.1953 122.266 23.1953C123.266 23.1953 124.188 23.4297 125.031 23.8984C125.875 24.3672 126.552 25.0859 127.062 26.0547C127.573 27.0234 127.828 28.2552 127.828 29.75C127.828 31.2031 127.578 32.4167 127.078 33.3906C126.578 34.3646 125.91 35.0885 125.078 35.5625C124.245 36.0365 123.305 36.2734 122.258 36.2734C121.57 36.2734 120.927 36.1641 120.328 35.9453C119.729 35.7266 119.201 35.4167 118.742 35.0156C118.284 34.6146 117.919 34.151 117.648 33.625H117.531V42.5H112.805ZM117.445 29.7344C117.445 30.4427 117.547 31.0521 117.75 31.5625C117.953 32.0729 118.25 32.4661 118.641 32.7422C119.031 33.0182 119.495 33.1562 120.031 33.1562C120.578 33.1562 121.044 33.0156 121.43 32.7344C121.815 32.4531 122.109 32.0573 122.312 31.5469C122.516 31.0365 122.617 30.4349 122.617 29.7422C122.617 29.0547 122.518 28.4583 122.32 27.9531C122.122 27.4479 121.831 27.0573 121.445 26.7813C121.06 26.5052 120.591 26.3672 120.039 26.3672C119.497 26.3672 119.031 26.5026 118.641 26.7734C118.25 27.0442 117.953 27.4297 117.75 27.9297C117.547 28.4297 117.445 29.0313 117.445 29.7344Z" fill="#1E1F2D"/>
  <path d="M135.305 37.2891C134.044 37.2891 132.932 37.0052 131.969 36.4375C131.005 35.8698 130.25 35.0729 129.703 34.0469C129.156 33.0208 128.883 31.8229 128.883 30.4531C128.883 29.0469 129.159 27.8385 129.711 26.8281C130.263 25.8177 131.021 25.0339 131.984 24.4766C132.948 23.9193 134.049 23.6406 135.289 23.6406C136.32 23.6406 137.247 23.8333 138.07 24.2188C138.893 24.6042 139.56 25.1693 140.07 25.9141C140.581 26.6589 140.883 27.5573 140.977 28.6094H136.602C136.508 28.0573 136.276 27.6198 135.906 27.2969C135.536 26.974 135.065 26.8125 134.492 26.8125C134.034 26.8125 133.633 26.9401 133.289 27.1953C132.945 27.4505 132.677 27.8333 132.484 28.3438C132.292 28.8542 132.195 29.4922 132.195 30.2578C132.195 31.0234 132.289 31.6641 132.477 32.1797C132.664 32.6953 132.932 33.0807 133.281 33.3359C133.63 33.5911 134.034 33.7188 134.492 33.7188C134.846 33.7188 135.161 33.6458 135.438 33.5C135.714 33.3542 135.94 33.1432 136.117 32.8672C136.294 32.5911 136.404 32.2604 136.445 31.875H140.82C140.737 32.9167 140.44 33.8203 139.93 34.5859C139.419 35.3516 138.727 35.9505 137.852 36.3828C136.977 36.8151 136.211 37.0312 135.305 37.2891Z" fill="#1E1F2D"/>
  <path d="M149.086 37.2891C147.784 37.2891 146.63 37.0026 145.625 36.4297C144.62 35.8568 143.831 35.0495 143.258 34.0078C142.685 32.9661 142.398 31.7604 142.398 30.3906C142.398 29.0208 142.685 27.8177 143.258 26.7813C143.831 25.7448 144.62 24.9401 145.625 24.3672C146.63 23.7943 147.784 23.5078 149.086 23.5078C150.388 23.5078 151.542 23.7943 152.547 24.3672C153.552 24.9401 154.341 25.7448 154.914 26.7813C155.487 27.8177 155.773 29.0208 155.773 30.3906C155.773 31.7604 155.487 32.9661 154.914 34.0078C154.341 35.0495 153.552 35.8568 152.547 36.4297C151.542 37.0026 150.388 37.2891 149.086 37.2891ZM149.117 34.0625C149.669 34.0625 150.133 33.9167 150.508 33.625C150.883 33.3333 151.164 32.9193 151.352 32.3828C151.539 31.8464 151.633 31.2031 151.633 30.4531C151.633 29.7031 151.539 29.0625 151.352 28.5313C151.164 28 150.883 27.5911 150.508 27.3047C150.133 27.0182 149.669 26.875 149.117 26.875C148.544 26.875 148.065 27.0182 147.68 27.3047C147.294 27.5911 147.005 28 146.812 28.5313C146.62 29.0625 146.523 29.7031 146.523 30.4531C146.523 31.2031 146.62 31.8464 146.812 32.3828C147.005 32.9193 147.294 33.3333 147.68 33.625C148.065 33.9167 148.544 34.0625 149.117 34.0625Z" fill="#1E1F2D"/>
  <path d="M163.695 37H156.914L163.914 17.4062H169.32L176.32 37H169.539L164.969 22.4688H168.266L163.695 37ZM161.93 31.1406H173.719V35.7656H161.93V31.1406Z" fill="#1E1F2D"/>
</svg> 